HIERARCHY
ROOT Hips
{
  OFFSET 43.0842 91.1655 101.099
  CHANNELS 6 Xposition Yposition Zposition Zrotation Xrotation Yrotation
  JOINT LeftUpLeg
  {
    OFFSET 8.64259 1.95398 -2.38835
    CHANNELS 3 Zrotation Xrotation Yrotation
    JOINT LeftLeg
    {
      OFFSET 43.7702 0 0
      CHANNELS 3 Zrotation Xrotation Yrotation
      JOINT LeftFoot
      {
        OFFSET 40.6238 0 0
        CHANNELS 3 Zrotation Xrotation Yrotation
        JOINT LeftToeBase
        {
          OFFSET 12.7242 0 0
          CHANNELS 3 Zrotation Xrotation Yrotation
          End Site
          {
            OFFSET 0 0 0
          }
        }
      }
    }
  }
  JOINT RightUpLeg
  {
    OFFSET -8.2249 1.95398 -2.59336
    CHANNELS 3 Zrotation Xrotation Yrotation
    JOINT RightLeg
    {
      OFFSET 43.5653 0 0
      CHANNELS 3 Zrotation Xrotation Yrotation
      JOINT RightFoot
      {
        OFFSET 40.6238 0 0
        CHANNELS 3 Zrotation Xrotation Yrotation
        JOINT RightToeBase
        {
          OFFSET 12.7242 0 0
          CHANNELS 3 Zrotation Xrotation Yrotation
          End Site
          {
            OFFSET 0 0 0
          }
        }
      }
    }
  }
  JOINT Spine
  {
    OFFSET 0.165834 0.87714 6.61349
    CHANNELS 3 Zrotation Xrotation Yrotation
    JOINT Spine1
    {
      OFFSET 7.38963 1.71661e-005 0
      CHANNELS 3 Zrotation Xrotation Yrotation
      JOINT Spine2
      {
        OFFSET 11.9445 1.14441e-005 0
        CHANNELS 3 Zrotation Xrotation Yrotation
        JOINT Spine3
        {
          OFFSET 14.7254 4.19617e-005 0
          CHANNELS 3 Zrotation Xrotation Yrotation
          JOINT Spine4
          {
            OFFSET 10.9679 0 0
            CHANNELS 3 Zrotation Xrotation Yrotation
            JOINT RightShoulder
            {
              OFFSET 2.46616 -1.6653 3.69651
              CHANNELS 3 Zrotation Xrotation Yrotation
              JOINT RightArm
              {
                OFFSET 13.0012 0 0
                CHANNELS 3 Zrotation Xrotation Yrotation
                JOINT RightForeArm
                {
                  OFFSET 28.7848 1.52588e-005 0
                  CHANNELS 3 Zrotation Xrotation Yrotation
                  JOINT RightHand
                  {
                    OFFSET 26.5688 1.52588e-005 0
                    CHANNELS 3 Zrotation Xrotation Yrotation
                    End Site
                    {
                      OFFSET 0 0 0
                    }
                  }
                }
              }
            }
            JOINT LeftShoulder
            {
              OFFSET 2.38034 -1.29275 -3.7523
              CHANNELS 3 Zrotation Xrotation Yrotation
              JOINT LeftArm
              {
                OFFSET 16.3182 6.10351e-005 0
                CHANNELS 3 Zrotation Xrotation Yrotation
                JOINT LeftForeArm
                {
                  OFFSET 27.0901 0 0
                  CHANNELS 3 Zrotation Xrotation Yrotation
                  JOINT LeftHand
                  {
                    OFFSET 24.5451 1.52588e-005 0
                    CHANNELS 3 Zrotation Xrotation Yrotation
                    End Site
                    {
                      OFFSET 0 0 0
                    }
                  }
                }
              }
            }
            JOINT Neck
            {
              OFFSET 5.0226 -0.0266342 0
              CHANNELS 3 Zrotation Xrotation Yrotation
              JOINT Head
              {
                OFFSET 6.69364 2.86102e-005 0
                CHANNELS 3 Zrotation Xrotation Yrotation
                End Site
                {
                  OFFSET 0 0 0
                }
              }
            }
          }
        }
      }
    }
  }
}
MOTION
Frames:	9
Frame Time:	0.0333333
42.6079 83.412 24.4262 -89.1173 3.20457 -83.7026 169.654 28.9827 93.1706 -70.6615 41.8439 11.6678 65.6557 11.5567 32.446 40.6598 13.9083 1.59831 176.503 20.582 73.9333 -35.4086 -0.836697 -7.04758 65.468 -4.85731 22.5264 46.6502 -9.47005 -1.01953 2.51677 6.9022 -90.0401 13.0973 4.97646 -0.694085 1.43561 4.9411 -0.912975 -21.1754 4.95443 0.837446 -1.16269 4.95443 0.837441 89.321 -46.8529 -102.658 -14.6013 -18.6344 -79.5639 -6.46453 -3.21277 -106.858 -18.2112 -3.91862 5.68422 -97.4799 -54.0792 68.971 41.4219 -36.9281 -4.59978 12.4276 -15.1439 -54.0347 25.768 3.12346 -3.12326 -9.56402 21.4099 20.8214 -4.7334 20.2473 6.75048 
44.5286 83.4433 23.6966 -86.4479 6.27915 -82.9443 169.407 32.8761 96.1178 -70.3856 41.21 11.1758 65.0259 10.7251 31.935 40.1282 12.9918 2.3835 176.481 22.4755 75.6405 -30.6965 4.10916 -5.22359 65.1593 -3.72246 24.718 44.6233 -8.74024 0.950747 2.09583 6.93512 -89.9076 13.0182 4.20503 -0.32956 1.35392 4.18644 -0.514637 -21.2339 4.10935 0.951652 -1.22127 4.10931 0.951642 89.8579 -46.7153 -101.842 -11.7762 -19.6539 -74.1602 -6.60582 -3.33704 -110.298 -16.2119 -3.28642 5.76461 -96.8826 -53.468 69.6261 38.3506 -46.9322 -5.77861 12.7541 -14.5122 -50.9562 25.5422 3.04852 -4.68439 -6.49645 23.8022 21.0893 -4.02886 22.0257 7.70158 
46.3404 84.7691 22.723 -84.1816 4.81334 -82.8059 170.753 35.5158 98.3993 -66.1918 41.954 10.072 64.748 9.32492 28.7433 39.3043 11.1129 4.69099 176.512 21.9119 76.4045 -24.7936 3.48729 -3.99601 61.6188 -1.6281 21.4669 43.9133 -8.70303 2.77774 1.44473 7.08989 -89.6759 12.6949 3.02444 0.292352 1.02751 3.03436 0.158835 -21.5324 2.79663 1.18849 -1.51974 2.7966 1.18847 90.2257 -48.5887 -100.804 -11.4237 -21.0535 -67.7767 -7.07458 -2.53912 -112.859 -14.1173 -2.61092 5.95513 -97.3147 -54.1467 69.225 35.8389 -51.0994 -9.15026 14.8448 -15.3846 -47.2859 26.7048 3.15912 -4.95053 -4.21831 25.2704 21.3173 -2.64587 23.1073 8.01934 
47.6815 86.5278 21.7767 -82.6319 2.49489 -82.6619 173.705 36.9223 100.528 -59.2378 39.1454 7.26694 64.2979 8.2461 28.5902 38.2359 7.86094 8.83823 176.41 21.0749 77.0023 -20.4949 4.98127 -3.16132 57.942 0.696876 21.4064 41.1431 -7.24597 2.40596 0.791331 7.2455 -89.4475 12.3754 1.8349 0.894161 0.705412 1.87245 0.812521 -21.8344 1.48136 1.40434 -1.82171 1.48135 1.40432 90.2727 -50.2801 -100.342 -10.3358 -23.2477 -59.6009 -7.85625 -1.13029 -114.587 -12.4339 -2.08176 5.60476 -96.6362 -53.1093 69.8677 32.9598 -52.4297 -10.0169 15.1958 -14.2606 -46.2202 28.0415 3.31153 -4.53355 -3.14318 26.4442 20.5563 -0.886335 24.2585 8.53155 
48.4597 88.2726 20.9218 -81.5287 0.807435 -81.5592 179.72 38.2828 103.569 -51.3889 29.7127 2.40269 64.3685 8.46395 28.7807 36.763 4.16478 11.7899 175.863 19.0823 78.4428 -15.7879 7.91937 -2.11836 54.0265 2.6416 23.1671 37.7175 -5.39206 1.83404 0.364118 7.35085 -89.4403 12.1677 0.988692 1.00652 0.496796 1.03199 0.962036 -22.0369 0.640495 1.25711 -2.0243 0.640488 1.25711 90.6982 -50.7162 -99.5959 -7.93829 -25.2502 -51.1237 -7.60097 -0.683042 -115.567 -11.5908 -1.84199 4.56398 -96.3046 -52.6978 70.2154 30.4829 -52.0514 -10.0425 14.0988 -13.9291 -46.6292 28.5138 3.32964 -5.05365 -3.41673 27.1204 20.3964 0.760981 25.0962 8.31797 
48.6499 89.5037 20.1248 -81.2437 0.235351 -80.807 -172.234 38.9207 106.308 -45.4914 21.6618 -2.86935 64.3368 7.45942 29.0645 34.6227 1.1705 11.3222 175.26 16.5329 79.5296 -12.4978 8.33667 -1.74067 51.5256 3.04063 22.7787 37.4606 -5.38045 2.33232 0.183681 7.41414 -89.4685 12.0418 0.61617 0.99327 0.370662 0.659295 0.965178 -22.1619 0.289179 1.13252 -2.14923 0.289191 1.13251 91.3111 -50.8147 -98.6444 -6.60429 -27.2441 -44.1126 -8.53803 0.641375 -116.341 -10.7721 -1.59206 4.4646 -97.3576 -53.9625 69.1083 29.399 -53.738 -10.1205 12.8268 -11.6266 -48.845 29.1249 3.37538 -5.31589 -4.46902 27.2687 19.5456 1.34579 25.5905 9.09639 
48.3672 89.8582 19.7202 -81.747 -0.413155 -81.357 -165.255 38.0271 107.379 -41.6394 16.8075 -7.45149 63.8199 5.44123 28.2156 32.4393 -1.51819 10.2744 174.022 14.9058 78.6016 -12.4876 9.5663 -1.6441 51.0041 2.03328 25.8843 38.8574 -6.19044 2.75053 0.0147727 7.4465 -89.4101 11.9778 0.307544 1.14338 0.306404 0.357576 1.12872 -22.2247 -0.0502756 1.18294 -2.212 -0.050271 1.18293 92.3492 -49.8564 -97.2398 -4.9482 -30.4018 -40.2572 -9.83941 2.32995 -116.322 -10.8932 -1.63701 4.25384 -98.6541 -55.166 67.679 30.2281 -59.4154 -7.74392 10.682 -5.08344 -53.6726 29.8592 3.49315 -4.63976 -4.951 27.473 18.1586 0.41901 25.9934 10.0668 
47.9357 89.6804 19.7717 -82.561 -0.988601 -82.5934 -160.529 36.2961 107.573 -38.9208 13.7477 -10.6881 62.6439 2.22051 23.3819 31.1102 -2.9692 9.42227 172.335 14.0921 76.6828 -12.8945 8.41917 -1.26264 51.2106 1.44633 27.1848 40.7741 -7.30333 3.50244 -0.113533 7.43986 -89.3734 11.992 0.0699351 1.24232 0.320502 0.12453 1.23803 -22.2101 -0.306649 1.20591 -2.19746 -0.306647 1.20591 93.1339 -48.3548 -96.2989 -2.72138 -33.168 -39.0216 -9.32829 2.63971 -116.976 -10.543 -1.51751 4.51211 -99.9822 -56.3998 66.2563 35.1346 -67.8604 -0.448656 6.6926 3.93655 -60.2929 31.4757 3.70007 -4.14851 -5.34955 27.6242 18.3968 -0.741885 26.1016 9.87029 
47.5647 89.0003 19.895 -83.1292 -1.45788 -83.614 -157.756 35.5047 107.409 -38.2836 13.6145 -12.3291 61.8472 0.745179 20.1661 31.171 -1.11229 6.84525 171.629 15.4463 75.379 -16.7729 7.69217 -1.21569 53.7878 0.443006 26.3134 42.491 -8.20238 3.80868 -0.104665 7.41538 -89.4228 12.0416 0.064513 1.14457 0.370135 0.11484 1.14062 -22.1612 -0.282437 1.11105 -2.14855 -0.282424 1.11106 93.2416 -48.1704 -96.1619 -2.45234 -35.0368 -39.607 -8.79611 3.07895 -118.534 -10.2958 -1.43065 4.81579 -101.929 -58.1784 64.2361 45.7762 -76.3637 11.8092 3.21305 13.0211 -66.9391 32.1209 3.82101 -3.54402 -6.97483 27.2443 20.2172 -0.361083 25.8868 9.52787 
